<svg xmlns="http://www.w3.org/2000/svg" width="64" height="64" viewBox="0 0 16.933 16.933"><path fill="#06f" d="M0 0h16.961v16.933H0z"/><path d="M8.519 2.795a5.724 5.724 0 1 0 0 11.448 5.724 5.724 0 0 0 0-11.448zm.477 7.659V8.996h1.428a8.835 8.835 0 0 1-.218 1.564 11.57 11.57 0 0 0-1.21-.106zm.933 1.03a5.695 5.695 0 0 1-.933 1.65v-1.727c.317.013.629.038.933.078zm-.933-3.442V6.604c.414-.016.82-.05 1.215-.107.113.49.185 1.007.213 1.545zm0-2.392V3.904c.384.462.701 1.026.94 1.668-.306.04-.62.065-.94.078zm1.289-1.558c.59.237 1.123.586 1.569 1.024-.306.111-.625.21-.963.29a7.308 7.308 0 0 0-.606-1.314zM6.83 10.56a8.79 8.79 0 0 1-.217-1.564h1.428v1.458a11.57 11.57 0 0 0-1.21.106zm1.21.847v1.726a5.695 5.695 0 0 1-.933-1.648c.305-.04.616-.065.934-.078zM6.615 8.042a8.772 8.772 0 0 1 .212-1.545c.395.058.802.09 1.216.107v1.438zm.488-2.47a5.713 5.713 0 0 1 .94-1.668V5.65a10.66 10.66 0 0 1-.94-.078zm-.956-.167a8.275 8.275 0 0 1-.963-.29c.447-.438.98-.787 1.57-1.023-.237.402-.443.84-.607 1.313zm-.262.914a9.72 9.72 0 0 0-.235 1.723H3.773c.08-.791.353-1.525.772-2.155.42.172.866.32 1.339.432zm.004 4.418a9.153 9.153 0 0 0-1.334.43 4.733 4.733 0 0 1-.78-2.171H5.65c.027.603.11 1.186.238 1.741zm.264.914c.163.466.366.897.6 1.294a4.774 4.774 0 0 1-1.553-1.009c.303-.11.62-.207.953-.285zm4.733 0c.334.078.65.175.954.285-.444.43-.97.775-1.554 1.01a7.38 7.38 0 0 0 .6-1.295zm.264-.914c.129-.555.21-1.138.24-1.741h1.875a4.739 4.739 0 0 1-.78 2.17 9.171 9.171 0 0 0-1.335-.429zm.24-2.695a9.765 9.765 0 0 0-.236-1.723 9.1 9.1 0 0 0 1.34-.432c.418.63.692 1.364.77 2.155z" fill="#fff"/></svg>